PathFileType	4	(X/Y/Z)	 s01c0202.trc
DataRate	CameraRate	NumFrames	NumMarkers	Units	OrigDataRate	OrigDataStartFrame	OrigNumFrames
200	200	4	48	mm	200	1251	2000
Frame#	Time	racr			lacr			c7			jug			rlel			rdr			llel			ldr			s2			lic			ric			lasi			rasi			rpsi			lpsi			rgt			lgt			rth1			rth2			rth3			rth4			rlfc			rsh1			rsh2			rsh3			rsh4			rlmal			rmmal			rcal			rtoe			rmt5			lth1			lth2			lth4			lth3			llfc			lsh1			lsh2			lsh3			lsh4			llmal			lmmal			lcal			ltoe			lmt5			SBIKE			LBIKE			RBIKE			
		X1	Y1	Z1	X2	Y2	Z2	X3	Y3	Z3	X4	Y4	Z4	X5	Y5	Z5	X6	Y6	Z6	X7	Y7	Z7	X8	Y8	Z8	X9	Y9	Z9	X10	Y10	Z10	X11	Y11	Z11	X12	Y12	Z12	X13	Y13	Z13	X14	Y14	Z14	X15	Y15	Z15	X16	Y16	Z16	X17	Y17	Z17	X18	Y18	Z18	X19	Y19	Z19	X20	Y20	Z20	X21	Y21	Z21	X22	Y22	Z22	X23	Y23	Z23	X24	Y24	Z24	X25	Y25	Z25	X26	Y26	Z26	X27	Y27	Z27	X28	Y28	Z28	X29	Y29	Z29	X30	Y30	Z30	X31	Y31	Z31	X32	Y32	Z32	X33	Y33	Z33	X34	Y34	Z34	X35	Y35	Z35	X36	Y36	Z36	X37	Y37	Z37	X38	Y38	Z38	X39	Y39	Z39	X40	Y40	Z40	X41	Y41	Z41	X42	Y42	Z42	X43	Y43	Z43	X44	Y44	Z44	X45	Y45	Z45	X46	Y46	Z46	X47	Y47	Z47	X48	Y48	Z48	
1251	6.2550	532.559141	1247.519038	-69.212517	554.667448	1212.509039	-427.105646	523.051768	1349.327159	-255.649730	505.968378	1185.357674	-246.381848	463.412253	988.855550	49.481344	670.999205	885.497197	-35.264258	488.526138	969.607689	-569.833295	658.005115	871.417222	-422.729792	-6.359127	1147.119149	-258.513788	163.172302	1160.265587	-429.550110	136.869588	1158.191776	-94.372417	171.208262	1113.088875	-401.271840	167.008766	1114.160975	-121.669606	18.509471	1187.929924	-206.142367	20.870213	1188.058256	-311.461405	86.429505	1032.337308	-71.350231	127.397781	1039.623062	-451.242001	155.374652	918.699867	-48.772020	202.267678	850.733033	-52.640485	248.824742	773.546951	-62.113554	249.911621	879.898057	-61.726024	287.508066	664.139581	-80.733600	247.021078	553.300962	-50.325448	235.581883	469.277120	-56.324978	215.655352	383.406259	-69.086080	286.316957	462.196320	-88.703919	180.545498	262.879401	-93.921971	226.126548	275.112953	-166.487902	140.630557	243.824460	-147.265829	401.061813	173.995346	-131.220919	292.186388	158.271355	-63.116545	230.623264	977.379151	-445.164174	319.877300	971.640827	-445.178054	325.001472	1024.138010	-431.283896	402.674971	954.955624	-427.258105	491.801589	880.394770	-398.037127	394.779471	831.138518	-430.385267	330.466237	774.952911	-422.737450	264.286684	720.976871	-412.450324	367.826154	735.237272	-394.017018	170.646041	641.343875	-400.813385	195.611438	622.996128	-318.279058	126.117766	614.342420	-390.266539	296.016248	437.520627	-371.728518	206.112591	498.920100	-434.506595	-223.868230	893.316811	-251.680495	-12.581290	84.762082	-456.004651	-21.619077	80.715197	-55.933014	
1252	6.2600	534.471383	1247.879707	-71.668476	554.073845	1213.034727	-429.633134	523.778708	1349.775189	-257.763557	506.558452	1185.964641	-248.555349	464.020949	989.965048	49.049409	671.183961	885.700942	-35.496533	487.644443	969.435925	-570.760673	657.197814	871.321500	-423.784821	-6.713383	1148.391847	-257.577409	163.278262	1162.020112	-429.261434	138.213596	1158.742004	-94.586400	171.304041	1114.402394	-401.166482	167.466349	1114.772976	-121.628830	18.851300	1188.852533	-205.157113	21.067332	1188.948748	-310.396714	85.873508	1032.884051	-70.848387	127.287828	1041.350394	-451.088564	152.733001	919.039980	-47.594389	198.606884	850.280201	-51.237300	244.016726	772.431118	-60.326638	246.748625	878.807436	-59.973791	281.250421	662.571460	-78.741266	239.817045	551.856554	-48.850275	228.168018	467.888090	-55.094701	208.061271	382.029591	-68.116705	279.324828	460.705412	-86.670814	172.781419	261.987658	-93.005135	218.795757	273.615534	-165.373126	133.176869	244.306860	-146.743219	391.914932	168.352160	-131.545492	282.861025	155.001954	-63.211521	230.976003	980.245045	-444.927198	320.233635	976.027484	-445.226710	324.522839	1028.604662	-431.619892	403.360918	960.840355	-427.291613	495.549731	889.301572	-397.906746	398.002932	839.682421	-430.186138	334.876895	781.887971	-422.576139	269.980930	726.538300	-411.707151	373.059186	742.222653	-394.715752	177.100858	644.707173	-400.474810	202.265386	626.669889	-318.093488	132.679607	615.962997	-390.410786	306.519902	443.414010	-371.464170	215.459368	503.099453	-434.308532	-223.951584	893.331891	-251.667125	-12.588863	84.783154	-456.002301	-21.626373	80.734507	-55.925496	
1253	6.2650	536.371835	1248.091023	-74.116966	553.526963	1213.482208	-431.941917	524.490919	1350.235322	-259.962705	507.019059	1186.599968	-250.803386	464.753171	991.008489	48.554161	671.455103	885.760263	-35.876474	486.722346	969.341672	-571.734042	656.781330	871.649167	-424.584936	-6.557769	1149.318180	-256.769339	163.436316	1163.751568	-429.049808	139.369295	1159.575084	-94.700908	171.377213	1115.707385	-401.053602	167.872006	1115.391536	-121.535378	19.200851	1189.924679	-204.323399	21.248507	1189.932328	-309.441735	85.341041	1033.716034	-70.432780	127.268850	1043.205011	-451.019450	150.319694	919.754163	-46.429011	195.253513	850.338766	-49.845377	239.606869	771.840195	-58.401667	243.978338	878.155414	-58.058527	275.527980	661.555519	-76.795878	233.152072	551.140726	-47.422727	221.075537	467.268832	-53.879510	200.782651	381.615003	-67.098917	272.655754	459.803195	-84.737800	165.399435	261.866479	-92.593553	211.910898	272.970173	-164.234352	125.893976	245.634956	-146.306404	382.600688	163.156451	-131.839211	273.429612	152.488815	-63.265528	231.281971	983.001312	-444.703425	320.599713	980.068637	-444.994323	324.108818	1032.843525	-431.809925	404.085409	966.217626	-427.016953	496.995716	897.047963	-398.857160	401.337566	846.919580	-430.033384	339.127879	788.144323	-422.450981	275.208784	731.688137	-411.502900	378.132517	749.003278	-394.774716	183.616037	647.241451	-400.201874	208.819159	629.603245	-317.995493	135.619558	615.061338	-386.722166	317.179358	448.827027	-371.313686	225.196328	506.417595	-434.427005	-224.008672	893.336028	-251.668173	-12.606923	84.804571	-455.986305	-21.637637	80.771428	-55.911081	
1254	6.2700	538.266506	1248.160322	-76.545520	553.061677	1213.828777	-434.085828	525.248472	1350.503929	-262.017030	507.485134	1187.081604	-252.918179	465.566007	992.112810	48.172377	671.703193	885.891113	-36.194840	485.780463	969.237180	-572.691903	656.374407	871.992491	-425.327971	-6.406865	1150.616302	-256.165858	163.611980	1165.398299	-428.823064	139.825022	1161.158379	-93.688617	171.379512	1117.179754	-400.913062	168.169500	1116.155964	-121.353769	19.508161	1191.102597	-203.659782	21.356173	1191.178224	-308.689165	84.416707	1035.326092	-68.987234	127.314435	1045.144673	-451.139910	148.065004	920.662001	-45.414698	192.285629	850.801387	-48.415646	235.580446	771.899804	-56.389690	241.208441	878.195809	-56.149549	270.412298	661.168305	-74.814771	227.151979	551.216668	-46.101877	214.587574	467.474350	-52.679481	193.758284	381.912269	-66.206492	266.460429	459.447240	-82.912735	159.435766	261.442206	-93.734769	205.324577	273.091529	-163.153685	118.085088	248.837405	-144.661440	373.240586	158.515745	-132.075455	263.894284	150.550916	-63.339350	231.547526	985.651922	-444.500104	321.021385	983.907183	-444.825378	323.786115	1036.769526	-431.874000	404.747454	971.076620	-426.507230	498.659246	904.999241	-399.369432	404.281683	853.592952	-430.089623	343.189200	793.748571	-422.371488	280.348206	736.086475	-411.432493	383.082478	755.133903	-395.383246	190.082794	648.920939	-399.986033	215.232403	631.765663	-317.983612	140.726121	614.377805	-385.168101	327.904609	453.606283	-371.086765	234.812718	509.093722	-434.332950	-224.049661	893.341569	-251.676805	-12.612310	84.802666	-455.995782	-21.638598	80.781937	-55.926080	
